<svg width="82" height="82" viewBox="0 0 82 82" fill="none" xmlns="http://www.w3.org/2000/svg">
<path d="M59.8728 25.2727C64.1714 24.3181 69.7704 20.0516 70.6224 17.9503C71.1221 16.7203 68.6301 14.7984 67.9639 14.0233C66.4392 12.2552 67.0542 11.3839 67.6435 9.27626C68.3162 6.88032 66.721 4.23454 64.4596 3.19673C62.1982 2.15891 59.4948 2.48563 57.2206 3.49782C54.9464 4.51001 53.0053 6.13719 51.1026 7.73876C49.7124 6.8611 47.4959 2.98532 43.9084 5.50298C41.4292 7.23907 41.205 11.0188 41.5253 14.0361C42.2748 20.9997 43.9917 24.6128 47.2268 25.5866C51.314 26.8166 55.8368 26.1695 59.8728 25.2727Z" fill="#FFCA28"/>
<path d="M66.8556 5.2403C66.3111 14.6255 57.1566 20.8523 52.8131 23.5942L55.6319 26.0158C55.6319 26.0158 57.4192 26.0542 59.8664 25.2726C64.0625 23.9401 70.1933 20.1733 70.6161 17.9503C71.2375 14.7151 67.9191 15.4198 67.1695 12.8637C66.7788 11.512 69.0722 8.95592 66.8556 5.2403ZM51.1091 7.74514C51.1091 7.74514 49.4755 6.07311 48.2647 5.31076C47.6625 6.44467 47.2333 7.67467 47.0219 8.94311C46.6439 11.1725 47.0219 14.3372 47.9124 16.6947C48.0533 17.0598 48.5786 17.0022 48.6363 16.6178C49.405 11.5505 51.1091 7.74514 51.1091 7.74514Z" fill="#E2A610"/>
<path d="M39.6931 24.4462C39.6931 24.4462 19.712 26.6051 10.6984 43.9533C1.68483 61.3014 9.34671 71.8205 17.457 75.6514C25.5673 79.4823 46.0033 80.8341 59.2962 77.6822C72.5892 74.5303 75.9141 67.9959 75.2926 61.6858C74.3894 52.4736 65.8306 46.8105 65.8306 46.8105C65.8306 46.8105 66.1701 35.433 57.3423 28.0466C49.5075 21.4866 39.6931 24.4462 39.6931 24.4462Z" fill="#FFCA28"/>
<path d="M47.8932 53.6395C43.6074 48.2326 38.5464 47.5087 36.9257 45.5676C36.0416 44.5106 35.5227 43.4408 35.7213 42.1147C35.9327 40.7053 37.5663 39.7316 38.8347 39.4945C40.3146 39.2126 43.8444 39.36 46.8105 42.1851C47.5152 42.8514 47.2589 43.8892 47.2397 44.8181C47.1885 46.8105 50.0393 48.7451 52.3455 47.0795C54.6582 45.4075 52.8836 41.6855 51.391 39.8789C50.2635 38.5144 46.1763 35.5098 41.0961 35.0358C39.6675 34.9012 33.9211 34.0492 30.6027 40.3594C29.6482 42.1723 29.2958 46.5542 34.2927 50.257C35.3369 51.0322 40.7566 53.7869 42.2621 55.5742C44.8694 58.6684 43.0821 61.3911 41.0449 61.7498C35.4907 62.7236 32.3452 59.7191 31.7622 58.0726C31.3458 56.9003 31.7814 55.6319 31.2433 54.53C30.6924 53.3961 29.5649 52.9476 28.3733 53.3256C24.4655 54.5684 25.7083 58.8414 27.438 61.1925C29.2894 63.7101 31.5636 65.2284 34.1197 66.0612C43.6586 69.1683 48.2455 64.2611 49.0463 60.6672C49.6357 58.0342 49.5716 55.7536 47.8932 53.6395Z" fill="#6B4B46"/>
<path d="M45.5869 31.3842C37.4702 48.7195 36.0736 70.6097 36.0736 70.6097" stroke="#6B4B46" stroke-width="0.625" stroke-miterlimit="10"/>
<path d="M52.3198 20.4743C57.7267 22.2361 58.9246 27.124 58.5339 28.4565C58.0662 30.0197 52.0764 23.9337 43.1717 24.2989C40.0582 24.427 40.9615 22.5179 42.4029 21.4161C44.3056 19.9618 47.5023 18.9112 52.3198 20.4743Z" fill="#6D4C41"/>
<path d="M52.3198 20.4743C57.7267 22.2361 58.9246 27.124 58.5339 28.4565C58.0662 30.0197 52.0764 23.9337 43.1717 24.2989C40.0582 24.427 40.9615 22.5179 42.4029 21.4161C44.3056 19.9618 47.5023 18.9112 52.3198 20.4743Z" fill="#6B4B46"/>
<path d="M61.814 37.7072C62.493 37.2395 64.7737 38.0467 65.4143 42.5119C65.7282 44.6964 65.8243 46.8105 65.8243 46.8105C65.8243 46.8105 63.1337 44.3953 62.2432 42.6977C61.1221 40.5516 60.6865 38.4759 61.814 37.7072Z" fill="#E2A610"/>
</svg>
