<svg width="72" height="72" viewBox="0 0 72 72" fill="none" xmlns="http://www.w3.org/2000/svg">
<g clip-path="url(#clip0_315_28)">
<path d="M38.7056 17.2519C38.7056 17.2519 38.7056 34.7063 40.9556 42.8231C42.0637 46.8225 43.4474 49.3425 46.7662 46.8506L59.6418 46.7213C62.9549 49.2525 65.3287 46.8281 66.0431 42.7163C67.7306 33.0188 67.7306 17.2519 67.7306 17.2519H38.7056Z" fill="#6D4C41"/>
<path d="M50.3438 37.4737C50.3438 37.4737 41.3438 36.6581 36 45.8662V55.7775L50.3438 37.4737Z" fill="#651FFF"/>
<path d="M72 72.2981L36 72.3094V49.725C36 42.8175 41.1637 38.6269 47.8462 37.4737C52.1831 36.7256 56.4075 37.0012 60.2662 37.9125C66.5831 39.4144 72 43.3294 72 49.725V72.2981Z" fill="#651FFF"/>
<path d="M0 72.2981L36 72.3094V49.725C36 42.8175 30.5888 38.6269 23.9062 37.4737C19.5694 36.7256 15.5925 37.0012 11.7338 37.9125C5.41688 39.4144 0 43.335 0 49.725L0 72.2981Z" fill="#00BFA5"/>
<path d="M21.6562 37.4737C21.6562 37.4737 30.8419 36.6581 36 45.8662V55.7775L21.6562 37.4737Z" fill="#00BFA5"/>
<path d="M18.8213 41.6925C16.6444 41.6925 14.8838 39.9319 14.8838 37.755V34.1437H22.7588V37.755C22.7588 39.9319 20.9925 41.6925 18.8213 41.6925Z" fill="#E59900"/>
<path d="M30.6675 20.9363C30.6675 20.9363 32.8387 21.3132 32.8387 23.6532C32.8387 25.7175 31.2525 26.5332 29.6662 26.5332V20.9363H30.6675ZM6.96935 20.9363C6.96935 20.9363 4.7981 21.3132 4.7981 23.6532C4.7981 25.7175 6.38435 26.5332 7.9706 26.5332V20.9363H6.96935Z" fill="#E59600"/>
<path d="M18.8213 5.61377C9.45566 5.61377 7.00879 12.87 7.00879 23.0681C7.00879 33.6431 13.8038 36.3769 18.8213 36.3769C23.7657 36.3769 30.6338 33.7219 30.6338 23.0681C30.6338 12.8756 28.1813 5.61377 18.8213 5.61377Z" fill="#FCC21B"/>
<path d="M14.9287 24.0188C14.9287 25.0707 14.2256 25.9257 13.3537 25.9257C12.4818 25.9257 11.7731 25.0707 11.7731 24.0188C11.7731 22.9613 12.4818 22.1119 13.3537 22.1119C14.2256 22.1063 14.9287 22.9613 14.9287 24.0188ZM22.7081 24.0188C22.7081 25.0707 23.4112 25.9257 24.2887 25.9257C25.1606 25.9257 25.8693 25.0707 25.8693 24.0188C25.8693 22.9613 25.1606 22.1119 24.2887 22.1119C23.4112 22.1063 22.7081 22.9613 22.7081 24.0188Z" fill="#444444"/>
<path d="M22.2413 30.4594H15.4013C15.0075 30.4594 14.8388 30.7237 15.0975 31.1175C15.4632 31.6687 16.8075 32.7318 18.8157 32.7318C20.8238 32.7318 22.1738 31.6687 22.5338 31.1175C22.7982 30.7237 22.6294 30.4594 22.2413 30.4594Z" fill="#513F35"/>
<path d="M20.4694 27.5512C19.89 27.7143 19.2825 27.7987 18.8156 27.7987C18.3487 27.7987 17.7469 27.72 17.1619 27.5512C16.9144 27.4781 16.8131 27.7143 16.9031 27.8718C17.0887 28.1981 17.8312 28.8506 18.81 28.8506C19.7887 28.8506 20.5369 28.1981 20.7169 27.8718C20.8181 27.7143 20.7225 27.4781 20.4694 27.5512Z" fill="#E59600"/>
<path d="M19.1025 4.28065C19.1025 4.28065 18.9225 4.27502 18.8381 4.27502C18.7594 4.27502 18.5737 4.28065 18.5737 4.28065C8.47685 4.47752 5.4281 10.5581 5.4281 14.7713C5.4281 18.8663 5.43373 21.8756 5.43373 21.8756C5.43373 21.8756 5.59685 21.7069 5.88935 21.4763C6.20435 21.2288 6.55873 21.0938 6.55873 21.0938L7.0706 24.5138L10.44 17.4769C10.4625 17.4319 10.5075 17.4094 10.5525 17.415L12.5494 17.6344C14.5575 17.8594 16.5712 17.9663 18.585 17.9719V17.9775H19.1137V17.9719C21.1275 17.9663 23.1412 17.8594 25.1494 17.6344L27.1462 17.415C27.1969 17.4094 27.2419 17.4375 27.2587 17.4769L30.6281 24.5138L31.14 21.0938C31.14 21.0938 31.4887 21.2344 31.8094 21.4763C32.1075 21.7069 32.265 21.8756 32.265 21.8756C32.265 21.8756 32.2706 18.8663 32.2706 14.7713C32.2537 10.5581 29.205 4.47752 19.1025 4.28065Z" fill="#6D4C41"/>
<path d="M0 54.63H4.60687L4.60687 72.2981H0L0 54.63ZM67.5787 54.63H72.0787V72.2981H67.5787V54.63Z" fill="#FCC21B"/>
<path d="M53.2574 41.6925C51.0806 41.6925 49.3199 39.9319 49.3199 37.755V34.3912H57.1949V37.755C57.1949 39.9319 55.4287 41.6925 53.2574 41.6925Z" fill="#E59900"/>
<path d="M53.2575 30.2119C61.2725 30.2119 67.77 24.3717 67.77 17.1675C67.77 9.96327 61.2725 4.12311 53.2575 4.12311C45.2425 4.12311 38.745 9.96327 38.745 17.1675C38.745 24.3717 45.2425 30.2119 53.2575 30.2119Z" fill="#6D4C41"/>
<path d="M53.2575 7.2619C44.3362 7.2619 42.0018 14.1807 42.0018 23.895C42.0018 33.6094 48.9206 36.5738 53.2575 36.5738C57.5943 36.5738 64.5131 33.6094 64.5131 23.895C64.5131 14.1807 62.1787 7.2619 53.2575 7.2619Z" fill="#FCC21B"/>
<path d="M49.4044 24.2944C49.4044 25.335 48.7069 26.1787 47.8406 26.1787C46.98 26.1787 46.2769 25.335 46.2769 24.2944C46.2769 23.2481 46.98 22.4044 47.8406 22.4044C48.7069 22.4044 49.4044 23.2537 49.4044 24.2944ZM57.105 24.2944C57.105 25.335 57.8025 26.1787 58.6687 26.1787C59.5294 26.1787 60.2325 25.335 60.2325 24.2944C60.2325 23.2481 59.5294 22.4044 58.6687 22.4044C57.8025 22.4044 57.105 23.2537 57.105 24.2944Z" fill="#444444"/>
<path d="M56.6607 14.8894C55.4738 16.0313 49.5844 21.3413 41.4619 22.725V11.835C41.4619 11.835 44.9663 4.88251 53.3757 4.88251C61.785 4.88251 65.2894 12.015 65.2894 12.015V22.725C65.2894 22.725 59.7769 20.61 57.0094 14.9569C56.9958 14.9245 56.9744 14.896 56.9471 14.8739C56.9198 14.8518 56.8875 14.8367 56.8531 14.83C56.8186 14.8234 56.783 14.8253 56.7494 14.8356C56.7159 14.846 56.6854 14.8644 56.6607 14.8894Z" fill="#6D4C41"/>
<path d="M56.6381 30.6731H49.8656C49.4775 30.6731 49.3087 30.9318 49.5675 31.3256C49.9275 31.8712 51.2606 32.9231 53.2462 32.9231C55.2318 32.9231 56.5706 31.8712 56.925 31.3256C57.195 30.9318 57.0262 30.6731 56.6381 30.6731Z" fill="#4C3734"/>
<path d="M54.8887 28.0069C54.315 28.17 53.7131 28.2487 53.2518 28.2487C52.7906 28.2487 52.1943 28.17 51.615 28.0069C51.3675 27.9394 51.2718 28.17 51.3618 28.3275C51.5418 28.6481 52.2787 29.295 53.2518 29.295C54.225 29.295 54.9562 28.6481 55.1418 28.3275C55.2318 28.17 55.1362 27.9337 54.8887 28.0069Z" fill="#E48C15"/>
<path d="M48.1275 72.63H23.8725C23.6982 72.63 23.8725 68.6137 23.8725 68.6137C23.8725 63.0787 30.9207 61.2225 33.3675 61.2225H38.6382C41.085 61.2225 48.1275 63.0787 48.1275 68.6137V68.7712C48.1275 68.9681 48.3019 72.63 48.1275 72.63Z" fill="#B2DFDB"/>
<path d="M35.9943 65.4187C35.2947 65.4187 34.6236 65.1408 34.1289 64.646C33.6341 64.1513 33.3562 63.4803 33.3562 62.7806V60.7556H38.6381V62.7806C38.6381 64.2375 37.4568 65.4187 35.9943 65.4187Z" fill="#E59900"/>
<path d="M36 59.2819C42.4306 59.2819 47.6437 54.3735 47.6437 48.3188C47.6437 42.264 42.4306 37.3557 36 37.3557C29.5693 37.3557 24.3562 42.264 24.3562 48.3188C24.3562 54.3735 29.5693 59.2819 36 59.2819Z" fill="#6D4C41"/>
<path d="M45.5343 51.03C45.5343 51.03 47.3062 51.3394 47.3062 53.2463C47.3062 54.9338 46.0125 55.5975 44.7187 55.5975V51.03H45.5343ZM26.4656 51.03C26.4656 51.03 24.6937 51.3394 24.6937 53.2463C24.6937 54.9338 25.9875 55.5975 27.2812 55.5975V51.03H26.4656Z" fill="#E59600"/>
<path d="M42.75 45.2981C41.1356 43.29 38.3569 42.4238 36 42.4238C33.6488 42.4238 30.8644 43.2844 29.25 45.2981C27.6694 47.2669 26.8425 49.8038 26.8538 53.2125C26.865 55.9631 27.5738 58.0725 29.565 59.7375C31.41 61.2788 33.5475 62.1113 35.8594 62.1113C38.1319 62.1113 40.6406 61.3181 42.4181 59.7544C44.37 58.0388 45.1237 55.9631 45.135 53.2181C45.1575 49.8038 44.325 47.2669 42.75 45.2981Z" fill="#FCC21B"/>
<path d="M37.3331 55.2769C36.8606 55.4119 36.3768 55.4738 35.9999 55.4738C35.6231 55.4738 35.1337 55.4063 34.6668 55.2769C34.4643 55.2206 34.3856 55.4119 34.4587 55.5356C34.6106 55.8 35.2068 56.3288 35.9999 56.3288C36.7931 56.3288 37.3949 55.8 37.5412 55.5356C37.6143 55.4119 37.5356 55.2206 37.3331 55.2769Z" fill="#E59600"/>
<path d="M38.7619 57.4481H33.2381C32.9231 57.4481 32.7825 57.6619 32.9962 57.9825C33.2887 58.4269 34.38 59.2875 36 59.2875C37.6256 59.2875 38.7112 58.4269 39.0094 57.9825C39.2175 57.6619 39.0825 57.4481 38.7619 57.4481Z" fill="#513F35"/>
<path d="M32.3437 53.2913C32.3437 54.1069 31.7981 54.765 31.1231 54.765C30.4481 54.765 29.9025 54.1069 29.9025 53.2913C29.9025 52.4756 30.4537 51.8119 31.1231 51.8119C31.7981 51.8175 32.3437 52.4756 32.3437 53.2913ZM42.1031 53.2913C42.1031 54.1069 41.5575 54.765 40.8825 54.765C40.2075 54.765 39.6618 54.1069 39.6618 53.2913C39.6618 52.4756 40.2131 51.8119 40.8825 51.8119C41.5575 51.8175 42.1031 52.4756 42.1031 53.2913Z" fill="#444444"/>
<path d="M26.3532 52.6612C26.3532 52.6612 29.0082 49.8825 29.9813 48.9487C30.0432 48.8869 30.1444 48.9375 30.1332 49.0275C30.0938 49.4156 30.0657 49.8375 30.0488 50.0906C30.0432 50.2087 30.15 50.3044 30.2682 50.2819C32.175 49.9219 34.0088 49.1287 34.4982 48.9037C34.56 48.8756 34.6219 48.9262 34.6219 48.9881C34.6107 49.3425 34.6163 49.68 34.6219 49.8825C34.6219 49.995 34.7232 50.0794 34.8357 50.0625C36.585 49.7925 38.0419 49.0781 38.5257 48.8194C38.6382 48.7575 38.7619 48.7462 38.8857 48.7912C39.7913 49.1175 40.8938 49.7587 41.2932 49.995C41.3832 50.0456 41.4957 50.0175 41.5463 49.9275C41.6982 49.6519 41.9119 49.23 42.0075 49.0275C42.0357 48.9712 42.1088 48.96 42.1482 48.9994C43.5713 50.4056 45.6525 52.6556 45.6525 52.6556L47.1207 47.9419C47.1207 47.9419 44.7413 39.555 36.4782 39.555C28.215 39.555 25.0819 48.51 25.0819 48.51L26.3532 52.6612Z" fill="#6D4C41"/>
</g>
<defs>
<clipPath id="clip0_315_28">
<rect width="72" height="72" fill="white"/>
</clipPath>
</defs>
</svg>
