<svg width="150" height="150" viewBox="0 0 150 150" fill="none" xmlns="http://www.w3.org/2000/svg">
<path d="M105.377 148.944L150 98.92L149.555 8.18845C149.533 3.6333 146.112 -0.0432043 142.097 0.000383609L7.37783 1.46273C5.4098 1.48628 3.52728 2.37106 2.1439 3.92265C0.760526 5.47424 -0.0105445 7.56572 0.000108943 9.73756L0.648272 141.886C0.660437 142.97 0.865899 144.039 1.25293 145.033C1.63996 146.028 2.20098 146.927 2.90395 147.68C3.60692 148.434 4.43806 149.026 5.34994 149.424C6.26182 149.822 7.23657 150.017 8.21853 149.999L105.377 148.944ZM138.743 90.8144L97.8382 136.647L97.6156 91.2609L138.743 90.8144Z" fill="#64D4F5"/>
</svg>
