<svg width="224" height="224" viewBox="0 0 224 224" fill="none" xmlns="http://www.w3.org/2000/svg">
<path d="M171.5 0H52.5C23.5051 0 0 23.5051 0 52.5V171.5C0 200.495 23.5051 224 52.5 224H171.5C200.495 224 224 200.495 224 171.5V52.5C224 23.5051 200.495 0 171.5 0Z" fill="url(#paint0_radial_292_16)"/>
<path d="M171.5 0H52.5C23.5051 0 0 23.5051 0 52.5V171.5C0 200.495 23.5051 224 52.5 224H171.5C200.495 224 224 200.495 224 171.5V52.5C224 23.5051 200.495 0 171.5 0Z" fill="url(#paint1_radial_292_16)"/>
<path d="M112.008 24.5C88.2446 24.5 85.2618 24.6041 75.929 25.0285C66.6138 25.4555 60.2551 26.9299 54.6919 29.0937C48.9361 31.3285 44.0545 34.3184 39.1913 39.1834C34.3236 44.0475 31.3338 48.9291 29.092 54.6822C26.922 60.2472 25.4459 66.6085 25.0267 75.9194C24.6094 85.253 24.5 88.2368 24.5 112.001C24.5 135.765 24.605 138.738 25.0285 148.071C25.4573 157.386 26.9316 163.745 29.0938 169.308C31.3302 175.064 34.3201 179.945 39.1851 184.809C44.0475 189.676 48.9291 192.673 54.6805 194.908C60.2481 197.072 66.6076 198.546 75.9211 198.973C85.2547 199.398 88.235 199.502 111.997 199.502C135.763 199.502 138.736 199.398 148.069 198.973C157.385 198.546 163.75 197.072 169.318 194.908C175.071 192.673 179.945 189.676 184.807 184.809C189.675 179.945 192.664 175.064 194.906 169.311C197.057 163.745 198.534 157.384 198.971 148.073C199.391 138.74 199.5 135.765 199.5 112.001C199.5 88.2368 199.391 85.2547 198.971 75.9211C198.534 66.6059 197.057 60.2481 194.906 54.6849C192.664 48.9291 189.675 44.0475 184.807 39.1834C179.94 34.3166 175.073 31.3267 169.312 29.0946C163.734 26.9299 157.372 25.4546 148.057 25.0285C138.723 24.6041 135.752 24.5 111.981 24.5H112.008ZM104.158 40.2684C106.488 40.2649 109.088 40.2684 112.008 40.2684C135.371 40.2684 138.14 40.3524 147.366 40.7715C155.897 41.1617 160.528 42.5871 163.612 43.785C167.696 45.3705 170.607 47.2666 173.667 50.33C176.73 53.3925 178.625 56.3089 180.215 60.3925C181.413 63.4725 182.84 68.103 183.229 76.6342C183.648 85.8585 183.739 88.6287 183.739 111.981C183.739 135.333 183.648 138.104 183.229 147.327C182.838 155.858 181.413 160.489 180.215 163.57C178.63 167.653 176.73 170.561 173.667 173.622C170.605 176.684 167.697 178.58 163.612 180.166C160.531 181.369 155.897 182.791 147.366 183.181C138.141 183.6 135.371 183.691 112.008 183.691C88.6436 183.691 85.8742 183.6 76.6509 183.181C68.1196 182.787 63.4891 181.362 60.4021 180.164C56.3194 178.578 53.4021 176.683 50.3396 173.62C47.2771 170.558 45.3819 167.648 43.792 163.563C42.5941 160.482 41.167 155.851 40.7785 147.32C40.3594 138.096 40.2754 135.326 40.2754 111.959C40.2754 88.592 40.3594 85.8366 40.7785 76.6124C41.1688 68.0811 42.5941 63.4506 43.792 60.3662C45.3784 56.2826 47.2771 53.3662 50.3405 50.3037C53.4039 47.2412 56.3194 45.3451 60.403 43.7561C63.4874 42.553 68.1196 41.1311 76.6509 40.7391C84.7227 40.3742 87.8509 40.2649 104.158 40.2465V40.2684ZM158.715 54.7969C152.919 54.7969 148.215 59.4956 148.215 65.2934C148.215 71.0902 152.919 75.7934 158.715 75.7934C164.512 75.7934 169.215 71.0902 169.215 65.2934C169.215 59.4965 164.512 54.7934 158.715 54.7934V54.7969ZM112.008 67.0653C87.1929 67.0653 67.0731 87.185 67.0731 112.001C67.0731 136.817 87.1929 156.927 112.008 156.927C136.824 156.927 156.937 136.817 156.937 112.001C156.937 87.1859 136.822 67.0653 112.006 67.0653H112.008ZM112.008 82.8336C128.116 82.8336 141.175 95.8913 141.175 112.001C141.175 128.109 128.116 141.168 112.008 141.168C95.9 141.168 82.8415 128.109 82.8415 112.001C82.8415 95.8913 95.8991 82.8336 112.008 82.8336Z" fill="white"/>
<defs>
<radialGradient id="paint0_radial_292_16" cx="0" cy="0" r="1" gradientUnits="userSpaceOnUse" gradientTransform="translate(59.5 241.252) rotate(-90) scale(222.001 206.478)">
<stop stop-color="#FFDD55"/>
<stop offset="0.1" stop-color="#FFDD55"/>
<stop offset="0.5" stop-color="#FF543E"/>
<stop offset="1" stop-color="#C837AB"/>
</radialGradient>
<radialGradient id="paint1_radial_292_16" cx="0" cy="0" r="1" gradientUnits="userSpaceOnUse" gradientTransform="translate(-37.5207 16.1364) rotate(78.68) scale(99.2355 409.052)">
<stop stop-color="#3771C8"/>
<stop offset="0.128" stop-color="#3771C8"/>
<stop offset="1" stop-color="#6600FF" stop-opacity="0"/>
</radialGradient>
</defs>
</svg>
